<svg xmlns="http://www.w3.org/2000/svg" width="128" height="128" viewBox="0 0 128 128">
  <g id="Group_27" data-name="Group 27" transform="translate(-900 -1326)">
    <rect id="Rectangle_9" data-name="Rectangle 9" width="128" height="128" transform="translate(900 1326)" fill="#fff"/>
    <g id="templ-logoicon-blue" transform="translate(923 1349)">
      <path id="Path_51" data-name="Path 51" d="M86.638,64.87a31.935,31.935,0,0,1-21.931-8.987c-.082-.082-.082-.082-.124-.082-.041-.041-.041-.041-.041-.082-.041,0-.041-.041-.082-.041-.082-.082-.165-.124-.247-.206s-.082-.041-.124-.082c-.082-.041-.206-.082-.289-.124-.041,0-.082-.041-.165-.041a.764.764,0,0,1-.289-.082.248.248,0,0,1-.165-.041h-.453c-.082,0-.206.041-.289.041s-.082.041-.165.041c-.082.041-.206.041-.289.082-.041.041-.124.041-.165.082l-.247.124c-.041.041-.124.082-.165.124s-.082.041-.124.082l-.082.082-.082.082A31.876,31.876,0,0,1,39.191,64.87a2.391,2.391,0,1,0,0,4.782,36.445,36.445,0,0,0,23.662-8.863,36.363,36.363,0,0,0,23.662,8.863,2.393,2.393,0,0,0,2.391-2.391h0a2.208,2.208,0,0,0-1.979-2.391Z" transform="translate(-21.63 -32.386)" fill="#102d47"/>
      <path id="Path_52" data-name="Path 52" d="M67.4,0H15.294A15.341,15.341,0,0,0,0,15.294V67.441A15.234,15.234,0,0,0,9.564,81.58a2.862,2.862,0,0,0,.536.206,14.559,14.559,0,0,0,5.483,1.031H67.028a15.81,15.81,0,0,0,5.524-1.031c.165-.082.371-.124.536-.206a15.234,15.234,0,0,0,9.564-14.139V15.294A15.253,15.253,0,0,0,67.4,0Zm7.338,74.861a10.172,10.172,0,0,1-3.875,2.515c-.041.041-.041.041-.082.041a10.364,10.364,0,0,1-3.38.536H15.294a11.817,11.817,0,0,1-3.38-.536c-.041,0-.041,0-.082-.041a10.785,10.785,0,0,1-4.906-3.751v-.041a11.149,11.149,0,0,1-2.1-5.977V66.534c0-.165.041-.371.041-.536a11.085,11.085,0,0,1,3.092-6.6l.371-.371c.124-.124.289-.247.412-.371s.289-.206.412-.33l.824-.577c.041,0,.041-.041.082-.041.165-.082.33-.206.495-.289.082-.041.124-.082.206-.082.206-.082.412-.206.618-.289.082-.041.206-.082.289-.124.124-.041.206-.082.33-.124a.764.764,0,0,1,.289-.082.97.97,0,0,1,.33-.082l.453-.124h.041a10.587,10.587,0,0,1,7.956,1.319.862.862,0,0,1,.247.165h.041a2.387,2.387,0,0,0,2.226-4.2h-.041a.569.569,0,0,1-.165-.124,20.44,20.44,0,0,1,35.864,0,.569.569,0,0,0-.165.124A2.376,2.376,0,0,0,61.257,58a.664.664,0,0,0,.289-.165A10.976,10.976,0,0,1,69.5,56.516h.041c.165.041.33.082.453.124s.206.041.33.082.206.082.33.124l.618.247a6.2,6.2,0,0,1,.907.453h.082a13.538,13.538,0,0,1,1.278.824,1.614,1.614,0,0,0,.412.33c.041.041.082.041.124.082a1.111,1.111,0,0,1,.33.289c.124.124.247.206.371.33A9.774,9.774,0,0,1,76.1,61.01a1.7,1.7,0,0,1,.289.453c.247.453.495.907.7,1.36v.041l.371.989a6.288,6.288,0,0,1,.33,1.525,12.226,12.226,0,0,1,.124,1.731,11.386,11.386,0,0,1-3.174,7.75ZM77.952,55.9a15.779,15.779,0,0,0-2.8-2.144,2.628,2.628,0,0,0-.577-.33c-.041-.041-.041-.041-.082-.041a1.234,1.234,0,0,0-.33-.165,1.29,1.29,0,0,0-.412-.206,2.523,2.523,0,0,0-.495-.206A15.431,15.431,0,0,0,63.73,51.9,25.214,25.214,0,0,0,19,51.9a15.423,15.423,0,0,0-9.316.824c-.165.082-.371.165-.536.247l-.247.124c-.33.165-.7.33-1.031.536-.041.041-.082.041-.124.082a14.515,14.515,0,0,0-2.968,2.267V15.294A10.5,10.5,0,0,1,15.252,4.741H67.441A10.5,10.5,0,0,1,77.952,15.252Z" fill="#102d47"/>
      <path id="Path_53" data-name="Path 53" d="M46.691,40.332c10.264,0,17.4-7.214,20.694-11.419,3.3,4.2,10.429,11.419,20.694,11.419a2.391,2.391,0,1,0,0-4.782h0c-11.419,0-18.591-11.872-18.633-12a.569.569,0,0,0-.124-.165c0-.041-.041-.041-.041-.082-.082-.082-.165-.206-.247-.289l-.082-.082a.74.74,0,0,0-.289-.206l-.041-.041H68.58c-.082-.041-.206-.082-.289-.124a.248.248,0,0,0-.165-.041c-.082-.041-.206-.041-.289-.082-.082,0-.124-.041-.206-.041h-.495a.372.372,0,0,0-.206.041.764.764,0,0,0-.289.082c-.041,0-.082.041-.124.041-.124.041-.206.082-.33.124h-.041l-.041.041a1.253,1.253,0,0,0-.289.206c-.041,0-.041.041-.082.082a1.793,1.793,0,0,0-.247.289c0,.041-.041.041-.041.082s-.082.124-.124.165c-.082.124-7.173,12-18.633,12a2.391,2.391,0,0,0,0,4.782Z" transform="translate(-26.038 -13.166)" fill="#102d47"/>
    </g>
  </g>
</svg>
